<svg t="1599637925861" class="icon" viewBox="0 0 1024 1024" version="1.1" xmlns="http://www.w3.org/2000/svg" p-id="2471" width="200" height="200"><path d="M4.143262 2.378831h1008.246153v1008.246154h-1008.246153z" fill="#000000" opacity=".01" p-id="2472"></path><path d="M504.123077 47.261538a94.523077 94.523077 0 0 1 84.283077 137.373539L837.159385 389.498092a94.523077 94.523077 0 1 1 29.365169 176.348554l-77.697969 235.189169a94.523077 94.523077 0 1 1-140.6976 101.691077H375.855262a94.523077 94.523077 0 1 1-140.6976-101.691077L157.443938 565.846646a94.523077 94.523077 0 1 1 27.884308-177.152l235.425477-202.295138A94.523077 94.523077 0 0 1 504.123077 47.261538z m58.226215 168.991508A94.113477 94.113477 0 0 1 504.123077 236.307692a94.097723 94.097723 0 0 1-56.635077-18.8416L217.056492 415.428923A94.113477 94.113477 0 0 1 236.307692 472.615385a94.4128 94.4128 0 0 1-40.802461 77.792492l78.548677 237.757046a94.554585 94.554585 0 0 1 101.817107 73.570462H648.113231a94.554585 94.554585 0 0 1 101.817107-73.570462l78.564431-237.757046A94.4128 94.4128 0 0 1 787.692308 472.615385c0-20.873846 6.774154-40.172308 18.2272-55.800123z" fill="#A8ADBB" p-id="2473"></path></svg>