<svg t="1596425607318" class="icon" viewBox="0 0 1024 1024" version="1.1" xmlns="http://www.w3.org/2000/svg" p-id="6187" width="200" height="200"><path d="M202.8 408.1c-55 0-99.7 44.7-99.7 99.7s44.7 99.7 99.7 99.7c40.7 0 75.8-24.6 91.3-59.7h639v-80h-639c-15.5-35.1-50.6-59.7-91.3-59.7z m0 157c-31.6 0-57.3-25.7-57.3-57.3 0-31.6 25.7-57.3 57.3-57.3 31.6 0 57.3 25.7 57.3 57.3 0 31.6-25.7 57.3-57.3 57.3zM202.8 739.3c-55 0-99.7 44.7-99.7 99.7s44.7 99.7 99.7 99.7c40.7 0 75.8-24.6 91.3-59.7h639v-80h-639c-15.5-35.1-50.6-59.7-91.3-59.7z m0 157c-31.6 0-57.3-25.7-57.3-57.3 0-31.6 25.7-57.3 57.3-57.3 31.6 0 57.3 25.7 57.3 57.3 0 31.6-25.7 57.3-57.3 57.3zM295.1 149.5c-14.9-36.4-50.6-62.1-92.3-62.1-55 0-99.7 44.7-99.7 99.7s44.7 99.7 99.7 99.7c39.8 0 74.2-23.5 90.2-57.3h640v-80H295.1z m-92.3 95c-31.6 0-57.3-25.7-57.3-57.3 0-31.6 25.7-57.3 57.3-57.3 31.6 0 57.3 25.7 57.3 57.3 0 31.5-25.7 57.3-57.3 57.3zM519.6 641.8H933v80H519.6zM519.6 308.6H933v80H519.6z" fill="#ffffff" p-id="6188"></path></svg>