<svg t="1596421030061" class="icon" viewBox="0 0 1024 1024" version="1.1" xmlns="http://www.w3.org/2000/svg" p-id="1985" width="200" height="200"><path d="M643.179175 987.363256a21.756546 21.756546 0 0 1-8.958578 0 289.234084 289.234084 0 0 1-112.622121-63.989842 33.274718 33.274718 0 0 1-9.598476-23.676241 34.554514 34.554514 0 0 1 12.15807-24.31614 45.432788 45.432788 0 0 0 19.196952-35.834311 46.712584 46.712584 0 0 0-46.712584-46.072686 45.432788 45.432788 0 0 0-19.836851 5.759086 34.554514 34.554514 0 0 1-27.515632 0 31.355022 31.355022 0 0 1-17.917155-21.116648 300.112357 300.112357 0 0 1-11.518172-78.707505 303.951748 303.951748 0 0 1 9.598476-72.308521 34.554514 34.554514 0 0 1 15.997461-20.47675 30.075226 30.075226 0 0 1 25.595936 0 43.513092 43.513092 0 0 0 15.357562 0 46.712584 46.712584 0 0 0 46.712585-46.072685 46.072686 46.072686 0 0 0-15.997461-33.914617 31.994921 31.994921 0 0 1-10.878273-23.676241 32.634819 32.634819 0 0 1 10.238375-23.676241 291.153779 291.153779 0 0 1 120.300902-63.989842 31.994921 31.994921 0 0 1 39.673702 21.116648 44.152991 44.152991 0 0 0 42.873194 32.634819 45.432788 45.432788 0 0 0 43.513092-32.634819 31.355022 31.355022 0 0 1 39.033804-21.116648 299.472459 299.472459 0 0 1 119.661003 63.989842 32.634819 32.634819 0 0 1 10.238375 23.676241 31.994921 31.994921 0 0 1-10.878273 23.676241 46.072686 46.072686 0 0 0-15.99746 33.914617 46.712584 46.712584 0 0 0 46.712584 46.072685 43.513092 43.513092 0 0 0 15.357562 0 30.075226 30.075226 0 0 1 25.595937 0 34.554514 34.554514 0 0 1 15.99746 20.47675 303.951748 303.951748 0 0 1 9.598476 72.308521 295.633068 295.633068 0 0 1-10.238375 74.868115 29.435327 29.435327 0 0 1-15.99746 19.83685 30.075226 30.075226 0 0 1-25.595937 0 55.671162 55.671162 0 0 0-14.717663 0 46.072686 46.072686 0 0 0-31.355023 79.987302 30.075226 30.075226 0 0 1 10.238375 23.676242 33.274718 33.274718 0 0 1-10.238375 23.676241 296.912865 296.912865 0 0 1-115.181714 63.989842 32.634819 32.634819 0 0 1-25.595937-3.199492 30.075226 30.075226 0 0 1-14.717664-21.756546 45.432788 45.432788 0 0 0-44.15299-39.033804 46.072686 46.072686 0 0 0-44.792889 39.033804 32.634819 32.634819 0 0 1-14.077766 22.396444 33.274718 33.274718 0 0 1-18.557054 4.479289zM589.427708 895.857783a245.720992 245.720992 0 0 0 33.914616 17.917155 108.782731 108.782731 0 0 1 191.969525 0 236.762414 236.762414 0 0 0 39.033804-22.396444 109.422629 109.422629 0 0 1 97.264559-161.8943 234.842719 234.842719 0 0 0 0-29.435327 206.04729 206.04729 0 0 0 0-27.515632 110.702426 110.702426 0 0 1-110.702426-110.062527 108.142832 108.142832 0 0 1 12.797968-50.551975 200.288204 200.288204 0 0 0-46.072686-24.956038 108.142832 108.142832 0 0 1-179.171556 0 234.842719 234.842719 0 0 0-46.712585 25.595936 108.142832 108.142832 0 0 1 14.077766 53.111569 109.422629 109.422629 0 0 1-111.342325 110.062527 206.04729 206.04729 0 0 0 0 27.515632 163.813995 163.813995 0 0 0 0 30.075226 111.342324 111.342324 0 0 1 120.940801 109.422629 105.583239 105.583239 0 0 1-15.997461 53.111569z" fill="#ffffff" p-id="1986"></path><path d="M718.04729 800.512919a100.464051 100.464051 0 1 1 100.464051-100.464052 100.464051 100.464051 0 0 1-100.464051 100.464052z m0-136.938261a37.114108 37.114108 0 0 0-37.114108 36.474209 37.114108 37.114108 0 1 0 37.114108-36.474209zM464.647517 259.158859c-46.712584 0-457.527368-3.83939-457.527367-127.979684s410.814783-127.979683 457.527367-127.979683 457.527368 3.199492 457.527368 127.979683-410.174885 127.979683-457.527368 127.979684z m-391.61783-127.979684c24.31614 24.31614 165.093791 63.989842 391.61783 63.989842s366.661792-39.673702 390.977932-63.989842c-24.31614-24.956038-165.093791-63.989842-390.977932-63.989841s-367.301691 39.033803-391.61783 63.989841zM373.781942 511.918733C262.439618 505.519749 7.12015 482.483406 7.12015 383.93905a31.994921 31.994921 0 0 1 31.99492-31.994921 32.634819 32.634819 0 0 1 31.994921 31.994921c8.318679 12.797968 97.904458 51.831772 303.951748 63.989841a31.994921 31.994921 0 0 1 30.715124 33.274718 32.634819 32.634819 0 0 1-31.994921 30.715124zM325.149662 762.758912H320.030475C178.612925 751.240741 7.12015 720.525617 7.12015 639.898416a31.994921 31.994921 0 0 1 31.99492-31.994921 31.994921 31.994921 0 0 1 31.994921 31.994921c7.038883 10.878273 80.6272 44.792889 255.959367 58.870654a31.994921 31.994921 0 0 1 0 63.989842z" fill="#ffffff" p-id="1987"></path><path d="M394.258691 1023.837466c-90.865575 0-383.93905-22.396445-383.939049-127.979683V131.179175a31.994921 31.994921 0 0 1 31.994921-31.994921 31.994921 31.994921 0 0 1 31.99492 31.994921V895.857783c10.238375 15.99746 116.461512 55.031264 324.428497 63.989841a33.274718 33.274718 0 0 1 30.715124 33.274718 31.994921 31.994921 0 0 1-35.194413 30.715124zM890.179964 348.104738a31.994921 31.994921 0 0 1-31.994921-31.99492V131.179175a31.994921 31.994921 0 0 1 31.994921-31.994921 31.994921 31.994921 0 0 1 31.994921 31.994921v184.930643a31.994921 31.994921 0 0 1-31.994921 31.99492z" fill="#ffffff" p-id="1988"></path></svg>