<svg t="1596425335050" class="icon" viewBox="0 0 1025 1024" version="1.1" xmlns="http://www.w3.org/2000/svg" p-id="5985" width="200" height="200"><path d="M268.916578 671.85082l64.213828 0c10.791263 0 19.565024-8.778761 19.565024-19.560024l0-128.775157c0-10.790013-8.775011-19.570024-19.565024-19.570024l-64.213828 0c-10.801263 0-19.570024 8.780011-19.570024 19.570024l0 128.775157C249.346554 663.072059 258.115315 671.85082 268.916578 671.85082z" p-id="5986" fill="#ffffff"></path><path d="M479.780586 671.85082l64.213828 0c10.791263 0 19.570024-8.778761 19.570024-19.560024l0-371.137953c0-10.791263-8.778761-19.570024-19.570024-19.570024l-64.213828 0c-10.781263 0-19.550024 8.778761-19.550024 19.570024l0 371.137953C460.230562 663.072059 468.999323 671.85082 479.780586 671.85082z" p-id="5987" fill="#ffffff"></path><path d="M671.119569 652.290796c0 10.781263 8.770011 19.560024 19.556274 19.560024l64.213828 0c10.791263 0 19.560024-8.778761 19.560024-19.560024L774.449695 391.367978c0-10.796263-8.770011-19.566274-19.560024-19.566274l-64.223828 0c-10.781263 0-19.551274 8.775011-19.551274 19.566274l0.005 0L671.119569 652.290796z" p-id="5988" fill="#ffffff"></path><path d="M512.016875 0C229.23403 0 0 229.23403 0 512.016875 0 794.77597 229.23403 1024 512.016875 1024c282.774095 0 512.006875-229.22403 512.006875-511.983125C1024.025 229.23403 794.79097 0 512.016875 0zM650.029543 391.367978c0-22.407527 18.232522-40.64505 40.65005-40.64505l64.213828 0c22.407527 0 40.65005 18.232522 40.65005 40.64505l0 260.912818c0 22.407527-18.242522 40.64005-40.65005 40.64005l-64.213828 0c-22.417527 0-40.65005-18.222522-40.65005-40.63005L650.029543 391.367978zM439.150536 281.152843c0-22.417527 18.237522-40.65005 40.64005-40.65005l64.213828 0c22.417527 0 40.65005 18.232522 40.65005 40.65005l0 371.127953c0 22.407527-18.232522 40.64005-40.65005 40.64005l-64.213828 0c-22.402527 0-40.64005-18.222522-40.64005-40.63005L439.150536 281.152843zM228.261529 523.516889c0-22.416277 18.237522-40.65005 40.65505-40.65005l64.213828 0c22.412527 0 40.6488 18.232522 40.6488 40.65005l0 128.765157c0 22.407527-18.236272 40.64005-40.6488 40.64005l-64.213828 0c-22.417527 0-40.65505-18.222522-40.65505-40.63005L228.261529 523.516889zM795.748471 783.492206 228.515279 783.492206l0-21.068776 567.233192 0L795.748471 783.492206z" p-id="5989" fill="#ffffff"></path><path d="M512.016875 999.03872" p-id="5990" fill="#ffffff"></path></svg>