<svg class="icon" viewBox="0 0 1024 1024" xmlns="http://www.w3.org/2000/svg" width="200" height="200"><defs><style/></defs><path d="M793.644 184.826H669.52l-75.384-75.724H427.75l-75.384 75.724H228.239c-10.1 1.024-19.963 14.255-18.94 26.787v47.915h602.728v-47.915c-.001-10.361-3.951-25.763-18.383-26.787zm-350.278-37.862h135.177l37.691 37.862h-210.56l37.692-37.862zM247.16 852.404c0 10.362 6.71 10.875 18.77 10.875h490.022c11.191 0 19.235-.513 19.235-10.875V297.39H247.16v555.014zm301.876-441.427h36.839V711.83h-36.839V410.977zm-113.587 0h37.862V711.83H435.45V410.977z"/></svg>