<svg t="1610356844800" class="icon" viewBox="0 0 1024 1024" version="1.1" xmlns="http://www.w3.org/2000/svg" p-id="1138" width="200" height="200"><path d="M955.733333 136.533333H68.266667C30.72 136.533333 0 167.253333 0 204.8v102.4c0 17.066667 17.066667 34.133333 34.133333 34.133333s34.133333-17.066667 34.133334-34.133333V204.8h887.466666v102.4c0 17.066667 17.066667 34.133333 34.133334 34.133333s34.133333-17.066667 34.133333-34.133333V204.8c0-37.546667-30.72-68.266667-68.266667-68.266667zM989.866667 682.666667c-17.066667 0-34.133333 17.066667-34.133334 34.133333v102.4H68.266667v-102.4c0-17.066667-17.066667-34.133333-34.133334-34.133333s-34.133333 17.066667-34.133333 34.133333v102.4c0 37.546667 30.72 68.266667 68.266667 68.266667h887.466666c37.546667 0 68.266667-30.72 68.266667-68.266667v-102.4c0-17.066667-17.066667-34.133333-34.133333-34.133333zM238.933333 682.666667c-20.48 0-34.133333-13.653333-34.133333-34.133334v-273.066666c0-17.066667 13.653333-34.133333 34.133333-34.133334 17.066667 0 34.133333 13.653333 34.133334 34.133334v273.066666c0 20.48-13.653333 34.133333-34.133334 34.133334zM887.466667 443.733333c0-58.026667-44.373333-102.4-102.4-102.4s-102.4 44.373333-102.4 102.4c0 20.48 13.653333 34.133333 34.133333 34.133334s34.133333-13.653333 34.133333-34.133334 13.653333-34.133333 34.133334-34.133333 34.133333 13.653333 34.133333 34.133333-13.653333 34.133333-34.133333 34.133334-34.133333 13.653333-34.133334 34.133333 13.653333 34.133333 34.133334 34.133333 34.133333 13.653333 34.133333 34.133334-13.653333 34.133333-34.133333 34.133333-34.133333-13.653333-34.133334-34.133333-13.653333-34.133333-34.133333-34.133334-34.133333 13.653333-34.133333 34.133334c0 58.026667 44.373333 102.4 102.4 102.4s102.4-44.373333 102.4-102.4c0-27.306667-10.24-51.2-27.306667-68.266667 17.066667-17.066667 27.306667-40.96 27.306667-68.266667zM580.266667 614.4h-98.986667c6.826667-44.373333 23.893333-68.266667 30.72-68.266667 58.026667 0 102.4-44.373333 102.4-102.4s-44.373333-102.4-102.4-102.4-102.4 44.373333-102.4 102.4c0 20.48 13.653333 34.133333 34.133333 34.133334s34.133333-13.653333 34.133334-34.133334 13.653333-34.133333 34.133333-34.133333 34.133333 13.653333 34.133333 34.133333-13.653333 34.133333-34.133333 34.133334c-58.026667 0-102.4 71.68-102.4 170.666666 0 20.48 13.653333 34.133333 34.133333 34.133334h136.533334c20.48 0 34.133333-13.653333 34.133333-34.133334s-13.653333-34.133333-34.133333-34.133333z" fill="#ffffff" p-id="1139"></path></svg>