<svg t="1610524117361" class="icon" viewBox="0 0 1024 1024" version="1.1" xmlns="http://www.w3.org/2000/svg" p-id="2035" width="200" height="200"><path d="M115.136 198.016a83.008 83.008 0 1 0 0-166.016 83.008 83.008 0 0 0 0 166.016z m0 32a115.008 115.008 0 1 1 0-230.016 115.008 115.008 0 0 1 0 230.016z m396-32a83.008 83.008 0 1 0 0-166.016 83.008 83.008 0 0 0 0 166.016z m0 32a115.008 115.008 0 1 1 0-230.016 115.008 115.008 0 0 1 0 230.016z m397.984-32a83.008 83.008 0 1 0 0-166.016 83.008 83.008 0 0 0 0 166.016z m0 32a115.008 115.008 0 1 1 0-230.016 115.008 115.008 0 0 1 0 230.016zM115.136 594.016a83.008 83.008 0 1 0 0-166.016 83.008 83.008 0 0 0 0 166.016z m0 32a115.008 115.008 0 1 1 0-230.016 115.008 115.008 0 0 1 0 230.016z m396-32a83.008 83.008 0 1 0 0-166.016 83.008 83.008 0 0 0 0 166.016z m0 32a115.008 115.008 0 1 1 0-230.016 115.008 115.008 0 0 1 0 230.016z m397.984-32a83.008 83.008 0 1 0 0-166.016 83.008 83.008 0 0 0 0 166.016z m0 32a115.008 115.008 0 1 1 0-230.016 115.008 115.008 0 0 1 0 230.016zM115.136 992a83.008 83.008 0 1 0 0-165.984 83.008 83.008 0 0 0 0 165.984z m0 32a115.008 115.008 0 1 1 0-230.016 115.008 115.008 0 0 1 0 230.016z m396-32a83.008 83.008 0 1 0 0-165.984 83.008 83.008 0 0 0 0 165.984z m0 32a115.008 115.008 0 1 1 0-230.016 115.008 115.008 0 0 1 0 230.016z m397.984-32a83.008 83.008 0 1 0 0-165.984 83.008 83.008 0 0 0 0 165.984z m0 32a115.008 115.008 0 1 1 0-230.016 115.008 115.008 0 0 1 0 230.016z" p-id="2036" fill="#ffffff"></path></svg>