<svg t="1610524061574" class="icon" viewBox="0 0 1024 1024" version="1.1" xmlns="http://www.w3.org/2000/svg" p-id="1601" width="200" height="200"><path d="M512 277.6c-48.6 0-87.9 39.3-87.9 87.9v58.6h175.8v-58.6c0-48.6-39.3-87.9-87.9-87.9zM512 512c-32.7 0-59.2 26.2-59.2 58.6 0 21.7 12.1 40.5 29.9 50.6v66.6c0 16.1 13.1 29.3 29.3 29.3 16.2 0 29.3-13.2 29.3-29.3v-66.6c17.8-10.1 29.9-28.8 29.9-50.6 0-32.4-26.5-58.6-59.2-58.6z" fill="#ffffff" p-id="1602"></path><path d="M512 0C229.2 0 0 229.2 0 512s229.2 512 512 512 512-229.2 512-512S794.8 0 512 0z m234.4 728.8c0 42.1-32.4 76.2-72.1 76.2H349.7c-39.8 0-72.1-34.2-72.1-76.2V500.3c0-42 32.3-76.2 72.1-76.2h18.7c-2-9.6-2.9-19.5-2.9-29.3v-29.3c0-80.9 65.6-146.5 146.5-146.5s146.5 65.6 146.5 146.5v29.3c0 10-1 19.8-2.9 29.3h18.7c39.8 0 72.1 34.2 72.1 76.2v228.5z" fill="#ffffff" p-id="1603"></path></svg>