<?xml version="1.0" standalone="no"?><!DOCTYPE svg PUBLIC "-//W3C//DTD SVG 1.1//EN" "http://www.w3.org/Graphics/SVG/1.1/DTD/svg11.dtd"><svg class="icon" width="200px" height="200.00px" viewBox="0 0 1024 1024" version="1.1" xmlns="http://www.w3.org/2000/svg"><path fill="#13227a" d="M811.184123 413.212789h-24.273428v105.561191h24.273428c9.031974 0 16.93495-0.564498 23.144433-2.257993 6.209482-1.693495 11.289967-4.515987 15.241455-8.467475 3.951488-3.951488 6.77398-9.596472 7.902977-16.370452 1.693495-6.77398 2.257993-15.241455 2.257993-25.966924 0-19.192944-3.38699-32.740904-10.725468-40.643881-6.77398-7.902977-19.757442-11.854465-37.82139-11.854466zM634.496141 434.099228c-3.951488-8.467475-9.596472-14.112459-16.93495-18.063947-7.338479-3.951488-16.93495-5.644983-28.224918-5.644983s-20.886439 1.693495-28.224917 5.644983c-7.338479 3.951488-12.983462 9.596472-17.499449 18.063947-3.951488 8.467475-6.77398 18.628445-8.467475 31.611908-1.693495 12.983462-2.257993 28.789416-2.257993 46.853362 0 18.628445 0.564498 34.434399 2.257993 47.417861 1.693495 12.983462 4.515987 23.144432 8.467475 31.047409 3.951488 7.902977 10.16097 13.54796 17.499449 17.499449 7.338479 3.951488 16.93495 5.644983 28.224917 5.644984s20.886439-1.693495 28.224918-5.644984c7.338479-3.951488 12.983462-9.596472 16.93495-17.499449 3.951488-7.902977 6.77398-18.063947 8.467475-31.047409 1.693495-12.983462 2.257993-28.789416 2.257994-47.417861 0-18.063947-0.564498-33.305402-2.257994-46.853362-1.128997-12.983462-3.951488-23.708931-8.467475-31.611908z"  /><path fill="#13227a" d="M706.187431 63.788313H317.812569L43.466373 326.280044v371.439912l274.346196 262.491731h388.374862l274.346196-262.491731V326.280044l-274.346196-262.491731zM251.766262 637.883131c-13.54796 14.112459-34.998897 20.886439-64.352811 20.886439-6.77398 0-13.54796 0-19.757442-0.564498-6.77398-0.564498-12.983462-1.128997-18.628446-2.257994s-11.289967-2.257993-15.805953-3.38699c-4.515987-1.128997-9.031974-2.257993-11.854466-3.951488v-47.98236c3.38699 1.693495 7.902977 3.38699 12.983462 4.515987 5.080485 1.128997 10.16097 2.822492 16.370452 3.951489 5.644983 1.128997 11.854465 2.257993 18.063948 2.822491 6.209482 0.564498 12.418964 1.128997 18.628445 1.128997 15.805954 0 27.095921-2.822492 33.305402-8.467475 6.77398-5.644983 10.16097-15.805954 10.160971-29.918413 0-6.77398-0.564498-11.854465-1.693495-16.370452-1.128997-4.515987-3.38699-8.467475-6.773981-11.854465-3.38699-3.38699-7.902977-6.209482-13.54796-9.031973s-13.54796-5.644983-22.579934-8.467476c-11.854465-3.38699-22.015436-7.338479-29.918412-11.289967s-14.112459-9.031974-19.192944-15.241455c-5.080485-6.209482-8.467475-13.54796-10.16097-22.015435-2.257993-8.467475-2.822492-19.192944-2.822492-31.611908 0-28.789416 6.77398-49.675854 20.321941-62.659316C158.059537 373.133407 177.816979 366.923925 204.348401 366.923925c12.418964 0 23.144432 1.128997 33.305403 2.822492 10.16097 2.257993 18.063947 4.515987 24.273429 7.338478v45.724366c-2.822492-1.128997-6.77398-2.822492-11.289967-3.951488s-9.031974-2.257993-14.112459-3.38699c-5.080485-1.128997-10.16097-1.693495-15.805954-2.257994-5.644983-0.564498-10.725469-0.564498-15.241455-0.564498-13.54796 0-23.708931 2.257993-29.918412 6.77398-6.209482 4.515987-9.596472 14.112459-9.596472 28.224918 0 5.644983 0.564498 10.16097 1.128996 13.54796 1.128997 3.951488 2.822492 6.77398 5.644984 9.596472s7.338479 5.644983 12.418964 7.902977c5.644983 2.257993 12.418964 5.080485 21.450937 7.902976 12.983462 3.951488 24.273429 8.467475 32.740904 12.983462 8.467475 4.515987 15.241455 10.16097 20.32194 17.499449 5.080485 6.77398 8.467475 15.241455 10.725469 24.837927 2.257993 9.596472 2.822492 20.886439 2.822492 34.434399-1.693495 25.966924-8.467475 47.417861-21.450938 61.53032z m210.557884-220.718853H400.793826V654.818082h-42.901875V417.164278H296.92613v-47.417861h165.398016v47.417861z m221.283351 167.09151c-4.515987 18.628445-10.725469 33.869901-19.192944 45.159868s-19.192944 18.628445-31.611907 23.144432c-12.418964 4.515987-27.095921 6.77398-43.466373 6.77398-16.370452 0-30.482911-2.257993-43.466372-6.77398-12.418964-4.515987-23.144432-11.854465-31.611908-23.144432-8.467475-11.289967-14.676957-25.966924-19.192943-45.159868s-6.77398-42.901874-6.773981-71.69129 2.257993-52.498346 6.773981-71.69129c4.515987-18.628445 10.725469-33.869901 19.192943-45.159867s19.192944-18.628445 31.611908-23.144433c12.418964-4.515987 27.095921-6.77398 43.466372-6.77398 16.370452 0 30.482911 2.257993 43.466373 6.77398 12.418964 4.515987 23.144432 12.418964 31.611907 23.144433 8.467475 11.289967 15.241455 25.966924 19.192944 45.159867 4.515987 18.628445 6.77398 42.901874 6.77398 71.69129s-2.257993 52.498346-6.77398 71.69129z m215.07387-73.949283c-3.38699 12.418964-8.467475 22.579934-15.241455 29.918412-6.77398 7.902977-15.805954 13.54796-27.095921 16.934951-10.725469 3.38699-24.273429 5.080485-39.514884 5.080485h-29.918412V654.818082h-42.901875V369.746417h72.255789c16.370452 0 30.482911 1.693495 41.772877 5.080485 11.289967 3.38699 20.32194 9.031974 27.095921 16.93495 6.77398 7.902977 11.289967 17.499449 14.112458 29.353914s3.951488 26.531422 3.951489 42.901875c0.564498 18.628445-1.128997 33.869901-4.515987 46.288864z"  /></svg>