<?xml version="1.0" standalone="no"?><!DOCTYPE svg PUBLIC "-//W3C//DTD SVG 1.1//EN" "http://www.w3.org/Graphics/SVG/1.1/DTD/svg11.dtd"><svg t="1564108452539" class="icon" viewBox="0 0 1024 1024" version="1.1" xmlns="http://www.w3.org/2000/svg" p-id="8582" xmlns:xlink="http://www.w3.org/1999/xlink" width="200" height="200"><defs><style type="text/css"></style></defs><path d="M371.828527 607.775526c-25.440374 0-47.688231 21.848792-47.688231 46.790335s22.247857 46.790335 47.688231 46.790335c25.440374 0 47.688231-21.848792 47.688231-46.790335 0-24.841777-22.247857-46.790335-47.688231-46.790335zM324.240062 358.060795h381.206548v156.134061H324.240062zM657.758379 607.775526c-25.440374 0-47.688231 21.848792-47.688231 46.790335s22.247857 46.790335 47.688231 46.790335c25.440374 0 47.688231-21.848792 47.688231-46.790335 0-24.841777-22.247857-46.790335-47.688231-46.790335z" fill="#FF5500" p-id="8583"></path><path d="M510.802806 2.394388C228.664069 2.394388 0 231.058457 0 513.197194s228.664069 510.802806 510.802806 510.802806 510.802806-228.664069 510.802806-510.802806-228.664069-510.802806-510.802806-510.802806z m258.09509 667.834762c0 28.034295-12.670304 53.075604-31.725643 68.639127v56.168356c0 18.756041-12.670304 31.226812-31.725643 31.226812h-31.725644c-19.055339 0-31.725643-12.470772-31.725643-31.226812v-31.226812H387.691348v31.226812c0 18.756041-12.670304 31.226812-31.725643 31.226812H324.240062c-19.055339 0-31.725643-12.470772-31.725643-31.226812v-56.168356c-19.055339-15.563523-31.725643-40.604832-31.725643-68.639127V358.060795c0-109.243959 114.332034-124.807482 254.104443-124.807482s254.104443 15.563523 254.104443 124.807482v312.168355z" fill="#FF5500" p-id="8584"></path><path d="M514.793453 233.253313c-139.772408 0-254.104443 15.563523-254.104443 124.807482v312.168355c0 28.034295 12.670304 53.075604 31.725643 68.639127v56.168356c0 18.756041 12.670304 31.226812 31.725643 31.226812h31.725643c19.055339 0 31.725643-12.470772 31.725643-31.226812v-31.226812h254.104443v31.226812c0 18.756041 12.670304 31.226812 31.725643 31.226812h31.725643c19.055339 0 31.725643-12.470772 31.725643-31.226812v-56.168356c19.055339-15.663289 31.725643-40.604832 31.725643-68.639127V358.060795c0.299299-109.243959-114.032736-124.807482-253.805144-124.807482zM371.828527 701.455963c-25.440374 0-47.688231-21.848792-47.688231-46.790336s22.247857-46.790335 47.688231-46.790335c25.440374 0 47.688231 21.848792 47.688231 46.790335s-22.247857 46.790335-47.688231 46.790336z m285.929852 0c-25.440374 0-47.688231-21.848792-47.688231-46.790336s22.247857-46.790335 47.688231-46.790335c25.440374 0 47.688231 21.848792 47.688231 46.790335s-22.247857 46.790335-47.688231 46.790336z m47.688231-187.261107H324.240062V358.060795h381.206548v156.134061z" fill="#FFFFFF" p-id="8585"></path></svg>