<?xml version="1.0" standalone="no"?><!DOCTYPE svg PUBLIC "-//W3C//DTD SVG 1.1//EN" "http://www.w3.org/Graphics/SVG/1.1/DTD/svg11.dtd"><svg class="icon" width="200px" height="200.00px" viewBox="0 0 1024 1024" version="1.1" xmlns="http://www.w3.org/2000/svg"><path fill="#13227a" d="M896 362.667h-21.333v-64H896A21.333 21.333 0 0 0 896 256H128a21.333 21.333 0 0 0 0 42.667h21.333v64H128A42.667 42.667 0 0 0 128 448h85.333v294.016a42.667 42.667 0 1 0 85.334 0V448h426.666v298.667a42.667 42.667 0 1 0 85.334 0V448H896a42.667 42.667 0 1 0 0-85.333z m-64-64v64h-42.667v-64H832z m-85.333 0v64H704v-64h42.667z m-85.334 0v64h-42.666v-64h42.666z m-85.333 0v64h-42.667v-64H576z m-85.333 0v64H448v-64h42.667z m-85.334 0v64h-42.666v-64h42.666z m-85.333 0v64h-42.667v-64H320z m-128 0h42.667v64H192v-64z" /></svg>