<?xml version="1.0" standalone="no"?><!DOCTYPE svg PUBLIC "-//W3C//DTD SVG 1.1//EN" "http://www.w3.org/Graphics/SVG/1.1/DTD/svg11.dtd"><svg class="icon" width="200px" height="200.00px" viewBox="0 0 1024 1024" version="1.1" xmlns="http://www.w3.org/2000/svg"><path fill="#d81e06" d="M235.28716 279.273235l-61.905412 139.636268h683.519534l-62.13814-139.636268z m114.967194 111.243561a6.050905 6.050905 0 0 1 0 8.84363 6.283632 6.283632 0 0 1-8.610903 0L302.545296 360.494998l-38.632701 38.865428a6.283632 6.283632 0 0 1-8.610903 0 6.050905 6.050905 0 0 1 0-8.84363l38.632701-38.632701L255.999873 313.018667a6.09745 6.09745 0 0 1 8.610903-8.610904L302.545296 343.273191l38.865428-38.865428a6.09745 6.09745 0 0 1 8.610903 8.610904l-38.632701 38.865428z m141.498086 0a6.050905 6.050905 0 0 1 0 8.84363 6.283632 6.283632 0 0 1-8.610904 0l-38.865428-38.865428-38.632701 38.865428a6.283632 6.283632 0 0 1-8.84363-8.84363l38.865428-38.632701-38.865428-38.865428a6.283632 6.283632 0 0 1 0-8.610904 6.050905 6.050905 0 0 1 8.84363 0l38.632701 38.865428 38.865428-38.865428a6.09745 6.09745 0 0 1 8.610904 8.610904l-38.865428 38.865428z m141.498085 0a6.516359 6.516359 0 0 1 0 8.84363 6.283632 6.283632 0 0 1-8.610903 0l-38.865428-38.865428-38.865428 38.865428a6.283632 6.283632 0 0 1-8.610904 0 6.516359 6.516359 0 0 1 0-8.84363l38.865428-38.632701-38.865428-38.865428a6.283632 6.283632 0 0 1 0-8.610904 5.818178 5.818178 0 0 1 8.610904 0l38.865428 38.865428 38.865428-38.865428a5.818178 5.818178 0 0 1 8.610903 0 6.283632 6.283632 0 0 1 0 8.610904l-38.865428 38.865428z m141.498085 0a6.516359 6.516359 0 0 1 0 8.84363 6.283632 6.283632 0 0 1-8.610903 0l-38.865428-38.865428-38.865428 38.865428a6.283632 6.283632 0 0 1-8.610903 0 6.516359 6.516359 0 0 1 0-8.84363l38.865428-38.632701-38.865428-38.865428a6.283632 6.283632 0 0 1 0-8.610904 5.818178 5.818178 0 0 1 8.610903 0l38.865428 38.865428 38.865428-38.865428a5.818178 5.818178 0 0 1 8.610903 0 6.283632 6.283632 0 0 1 0 8.610904l-38.865428 38.865428zM511.999699 0.000698a442.181517 442.181517 0 0 0-116.363558 869.003044A289.745257 289.745257 0 0 1 511.999699 1024a289.745257 289.745257 0 0 1 116.363557-154.996258A442.181517 442.181517 0 0 0 511.999699 0.000698z m-13.032719 40.959972a3.723634 3.723634 0 0 1 3.490907-2.792725h19.083623a3.723634 3.723634 0 0 1 3.490907 2.792725L535.27241 73.309739a3.723634 3.723634 0 0 1-3.490907 4.88727h-39.330882a3.723634 3.723634 0 0 1-3.723634-4.88727z m-54.225417 154.298077l29.090889-94.487208a10.705447 10.705447 0 0 1 10.47272-7.679995h55.389053a10.705447 10.705447 0 0 1 10.47272 7.679995l29.090889 94.487208a10.938174 10.938174 0 0 1-10.47272 14.196354h-113.570831a10.938174 10.938174 0 0 1-10.47272-14.196354z m-130.327184 327.679776l-29.09089 87.505395a26.298164 26.298164 0 0 1-24.901801 17.919988H152.436307a26.065437 26.065437 0 0 1-24.669074-34.210886l29.090889-87.505395A26.298164 26.298164 0 0 1 181.759924 488.727638h107.985381a26.065437 26.065437 0 0 1 24.669074 34.210885zM659.548689 791.272886H364.450708a28.625435 28.625435 0 0 1-27.229072-37.003611l75.403585-245.527106A28.625435 28.625435 0 0 1 439.854293 488.727638h144.290811a28.625435 28.625435 0 0 1 27.229072 20.014531l75.403585 245.527106A28.625435 28.625435 0 0 1 659.548689 791.272886z m212.014401-162.90898h-107.985381a26.298164 26.298164 0 0 1-24.901801-17.919988l-29.09089-87.505395A26.065437 26.065437 0 0 1 734.254092 488.727638h107.985381a26.298164 26.298164 0 0 1 24.901802 17.919987l29.090889 87.505395A26.065437 26.065437 0 0 1 871.56309 628.363906z m10.47272-162.90898H148.247219a32.116342 32.116342 0 0 1-25.599982-46.545423l74.472676-168.028976A28.858162 28.858162 0 0 1 222.952623 232.727812h584.377783a28.858162 28.858162 0 0 1 25.83271 17.919988L907.635792 418.909503a32.349069 32.349069 0 0 1-25.599982 46.545423zM511.999699 628.363906a11.636356 11.636356 0 0 0-11.636356 11.636356v116.363557a11.636356 11.636356 0 0 0 23.272711 0v-116.363557a11.636356 11.636356 0 0 0-11.636355-11.636356zM511.999699 512.000349a11.636356 11.636356 0 0 0-11.636356 11.636356v69.818134a11.636356 11.636356 0 0 0 23.272711 0v-69.818134a11.636356 11.636356 0 0 0-11.636355-11.636356zM511.999699 186.182389a11.636356 11.636356 0 0 0 11.636355-11.636355v-46.545423a11.636356 11.636356 0 0 0-23.272711 0v46.545423a11.636356 11.636356 0 0 0 11.636356 11.636355zM511.999699 69.818832a5.818178 5.818178 0 0 0 5.818177-5.818177v-11.636356a5.818178 5.818178 0 0 0-11.636355 0v11.636356A5.818178 5.818178 0 0 0 511.999699 69.818832z" /></svg>