<?xml version="1.0" standalone="no"?><!DOCTYPE svg PUBLIC "-//W3C//DTD SVG 1.1//EN" "http://www.w3.org/Graphics/SVG/1.1/DTD/svg11.dtd"><svg t="1564108482100" class="icon" viewBox="0 0 1024 1024" version="1.1" xmlns="http://www.w3.org/2000/svg" p-id="8869" width="200" height="200" xmlns:xlink="http://www.w3.org/1999/xlink"><defs><style type="text/css"></style></defs><path d="M939.5 886H893c-11.8 0-21.3-9.6-21.3-21.3v-37.1H152.5v37.1c0 11.8-9.6 21.3-21.3 21.3H84.6c-11.8 0-21.3-9.6-21.3-21.3V159.3c0-11.8 9.6-21.3 21.3-21.3h46.5c11.8 0 21.3 9.6 21.3 21.3v104.8h719.2V159.3c0-11.8 9.6-21.3 21.3-21.3h46.5c11.8 0 21.3 9.6 21.3 21.3v705.3c0 11.8-9.5 21.3-21.2 21.4zM191.2 341.9h-38.7v349.9h38.7V341.9z m96.2 0h-37.1v349.9h37.1V341.9z m98.1 0h-39.1v349.9h39.1V341.9z m99.4 0h-40.3v349.9H485l-0.1-349.9c0.1 0 0 0 0 0z m59.1 0v349.9h33.8V341.9H544z m130.4 0h-37.5v349.9h37.5V341.9z m98.6 0h-39.5v349.9H773V341.9z m98.6 0h-39.9v349.9h39.9V341.9z" p-id="8870" fill="#95bc0e"></path></svg>