<?xml version="1.0" standalone="no"?><!DOCTYPE svg PUBLIC "-//W3C//DTD SVG 1.1//EN" "http://www.w3.org/Graphics/SVG/1.1/DTD/svg11.dtd"><svg class="icon" width="200px" height="200.00px" viewBox="0 0 1024 1024" version="1.1" xmlns="http://www.w3.org/2000/svg"><path fill="#13227a" d="M874.118793 877.336774h-39.382976a18.114464 18.114464 0 0 1-18.071842-18.071842v-31.412612H207.378647v31.412612a18.114464 18.114464 0 0 1-18.071842 18.071842h-39.425598a18.114464 18.114464 0 0 1-18.071842-18.071842V261.743351a18.114464 18.114464 0 0 1 18.071842-18.071842h39.382976a18.114464 18.114464 0 0 1 18.071842 18.071842v88.739563h609.242705V261.743351a18.114464 18.114464 0 0 1 18.071842-18.071842h39.382976a18.114464 18.114464 0 0 1 18.071842 18.071842V859.264932a18.114464 18.114464 0 0 1-17.986597 18.071842zM240.155172 416.419563h-32.776525v296.395255h32.776525V416.419563z m81.493777 0h-31.412612v296.395255h31.412612V416.419563z m83.156046 0h-33.117503v296.395255h33.117503V416.419563z m84.221602 0h-34.140437v296.395255h34.18306V416.419563h-0.042623z m50.081166 0v296.395255h28.642164V416.419563h-28.642164z m110.434297 0h-31.75359v296.395255h31.75359V416.419563z m83.539647 0h-33.458481v296.395255h33.458481V416.419563z m83.539646 0h-33.842081v296.395255h33.842081V416.419563z"  /></svg>