<?xml version="1.0" standalone="no"?><!DOCTYPE svg PUBLIC "-//W3C//DTD SVG 1.1//EN" "http://www.w3.org/Graphics/SVG/1.1/DTD/svg11.dtd"><svg t="1564108312769" class="icon" viewBox="0 0 1024 1024" version="1.1" xmlns="http://www.w3.org/2000/svg" p-id="5120" xmlns:xlink="http://www.w3.org/1999/xlink" width="200" height="200"><defs><style type="text/css"></style></defs><path d="M512 512m-496.941176 0a496.941176 496.941176 0 1 0 993.882352 0 496.941176 496.941176 0 1 0-993.882352 0Z" fill="#0098FF" p-id="5121"></path><path d="M825.223529 207.811765l-4.517647-4.517647c-170.164706-170.164706-445.741176-170.164706-614.4 0s-170.164706 445.741176 0 614.4l4.517647 4.517647 614.4-614.4z" fill="#AEE8FF" p-id="5122"></path><path d="M512 299.670588c-117.458824 0-212.329412 94.870588-212.329412 212.329412S394.541176 724.329412 512 724.329412 724.329412 629.458824 724.329412 512 629.458824 299.670588 512 299.670588z m0 397.552941c-102.4 0-185.223529-82.823529-185.223529-185.223529S409.6 326.776471 512 326.776471 697.223529 409.6 697.223529 512 614.4 697.223529 512 697.223529zM772.517647 792.094118c-67.764706 61.741176-159.623529 102.4-260.517647 102.4s-191.247059-37.647059-260.517647-102.4l-19.576471 18.070588c73.788235 67.764706 171.670588 111.435294 281.6 111.435294 108.423529 0 206.305882-40.658824 280.094118-109.929412l-21.082353-19.57647z" fill="#FFFFFF" p-id="5123"></path><path d="M525.552941 99.388235v28.611765C730.352941 135.529412 894.494118 304.188235 894.494118 512c0 100.894118-39.152941 192.752941-103.905883 260.517647l19.576471 19.576471c69.270588-73.788235 111.435294-173.176471 111.435294-283.105883C923.105882 287.623529 748.423529 105.411765 525.552941 99.388235zM498.447059 126.494118V99.388235C275.576471 105.411765 100.894118 287.623529 100.894118 510.494118c0 108.423529 42.164706 207.811765 111.435294 281.6l19.57647-19.576471c-63.247059-69.270588-102.4-161.129412-102.4-262.023529-1.505882-207.811765 164.141176-376.470588 368.941177-384z" fill="#FFFFFF" p-id="5124"></path><path d="M435.2 472.847059v-13.552941H466.823529V436.705882h22.588236v21.082353h42.164706V436.705882h22.588235v21.082353h28.611765v13.552941h-28.611765v42.164706H587.294118v13.552942h-33.129412v60.235294h-22.588235v-60.235294h-42.164706c1.505882 30.117647-13.552941 49.694118-48.188236 61.741176v-12.047059c18.070588-12.047059 27.105882-27.105882 25.6-46.682353V527.058824h-36.141176v-13.552942H466.823529v-42.164706h-31.623529z m54.211765 0v42.164706h42.164706v-42.164706h-42.164706z" fill="#FFFFFF" p-id="5125"></path></svg>