<?xml version="1.0" standalone="no"?><!DOCTYPE svg PUBLIC "-//W3C//DTD SVG 1.1//EN" "http://www.w3.org/Graphics/SVG/1.1/DTD/svg11.dtd"><svg class="icon" width="200px" height="200.00px" viewBox="0 0 1024 1024" version="1.1" xmlns="http://www.w3.org/2000/svg"><path fill="#13227a" d="M236.8 569.6l-70.4 12.8c12.8 70.4 44.8 128 96 179.2 51.2 51.2 108.8 83.2 179.2 96l12.8-70.4c-51.2-12.8-102.4-38.4-140.8-76.8-38.4-38.4-64-89.6-76.8-140.8zM256 403.2c12.8-32 32-64 57.6-89.6 38.4-38.4 89.6-64 140.8-76.8l-12.8-70.4c-70.4 12.8-128 44.8-179.2 96-51.2 51.2-83.2 115.2-96 179.2l70.4 12.8c6.4-12.8 12.8-32 19.2-51.2zM761.6 262.4c-51.2-51.2-108.8-83.2-179.2-96l-12.8 70.4c51.2 12.8 102.4 38.4 140.8 76.8 38.4 38.4 64 89.6 76.8 140.8l70.4-12.8c-6.4-25.6-12.8-44.8-19.2-64-19.2-44.8-44.8-83.2-76.8-115.2zM704 512c0-108.8-89.6-192-192-192-108.8 0-192 83.2-192 192s89.6 192 192 192c108.8 0 192-83.2 192-192zM512 633.6C448 633.6 390.4 576 390.4 512 390.4 448 448 390.4 512 390.4c64 0 121.6 57.6 121.6 121.6C633.6 576 576 633.6 512 633.6zM768 620.8c-12.8 32-32 64-57.6 89.6-38.4 38.4-89.6 64-140.8 76.8l12.8 70.4c25.6-6.4 44.8-12.8 64-19.2 44.8-19.2 83.2-44.8 115.2-76.8 51.2-51.2 83.2-108.8 96-179.2l-70.4-12.8c-6.4 12.8-12.8 32-19.2 51.2z"  /><path fill="#13227a" d="M1024 512c0-281.6-230.4-512-512-512S0 230.4 0 512v6.4C6.4 800 236.8 1024 512 1024s505.6-224 505.6-499.2c6.4-6.4 0-6.4 6.4-12.8-6.4 6.4 0 0 0 0z m-102.4 44.8h25.6c-19.2 204.8-185.6 371.2-390.4 390.4v-25.6c0-19.2-19.2-38.4-38.4-38.4s-38.4 19.2-38.4 38.4v25.6c-211.2-12.8-384-179.2-403.2-390.4h25.6c19.2 0 38.4-19.2 38.4-38.4s-19.2-38.4-38.4-38.4h-25.6c12.8-217.6 185.6-390.4 403.2-403.2v25.6c0 19.2 19.2 38.4 38.4 38.4s38.4-19.2 38.4-38.4v-25.6c211.2 19.2 377.6 192 390.4 403.2h-25.6c-19.2 0-38.4 19.2-38.4 38.4s19.2 38.4 38.4 38.4z"  /></svg>