<svg t="1606200403548" class="icon" viewBox="0 0 1024 1024" version="1.1" xmlns="http://www.w3.org/2000/svg" p-id="1730" width="200" height="200"><path d="M510.52 860.48L184.97 681.72V323.35l325.55-178.76 325.55 178.76v358.38L510.52 860.48zM204.97 669.89l305.55 167.78 305.55-167.78V335.18L510.52 167.4 204.97 335.18v334.71z" fill="#ffffff" p-id="1731"></path><path d="M511.33 171.84m-87.11 0a87.11 87.11 0 1 0 174.22 0 87.11 87.11 0 1 0-174.22 0Z" fill="#ffffff" p-id="1732"></path><path d="M511.33 515.22m-99.96 0a99.96 99.96 0 1 0 199.92 0 99.96 99.96 0 1 0-199.92 0Z" fill="#ffffff" p-id="1733"></path><path d="M811.32 340.37m-87.11 0a87.11 87.11 0 1 0 174.22 0 87.11 87.11 0 1 0-174.22 0Z" fill="#ffffff" p-id="1734"></path><path d="M211.02 340.37m-87.11 0a87.11 87.11 0 1 0 174.22 0 87.11 87.11 0 1 0-174.22 0Z" fill="#ffffff" p-id="1735"></path><path d="M511.33 855.08m-87.11 0a87.11 87.11 0 1 0 174.22 0 87.11 87.11 0 1 0-174.22 0Z" fill="#ffffff" p-id="1736"></path><path d="M811.32 683.29m-87.11 0a87.11 87.11 0 1 0 174.22 0 87.11 87.11 0 1 0-174.22 0Z" fill="#ffffff" p-id="1737"></path><path d="M211.02 689.29m-87.11 0a87.11 87.11 0 1 0 174.22 0 87.11 87.11 0 1 0-174.22 0Z" fill="#ffffff" p-id="1738"></path></svg>