<svg class="icon" viewBox="0 0 1024 1024" xmlns="http://www.w3.org/2000/svg" width="200" height="200"><defs><style/></defs><path d="M960 85.333c0-36.266-27.733-64-64-64H128c-36.267 0-64 27.734-64 64v853.334c0 36.266 27.733 64 64 64h768c36.267 0 64-27.734 64-64V85.333zM266.667 774.4C243.2 774.4 224 755.2 224 731.733s19.2-42.666 42.667-42.666 42.666 19.2 42.666 42.666-19.2 42.667-42.666 42.667zm0-204.8C243.2 569.6 224 550.4 224 526.933s19.2-42.666 42.667-42.666 42.666 19.2 42.666 42.666-19.2 42.667-42.666 42.667zm0-206.933C243.2 362.667 224 343.467 224 320s19.2-42.667 42.667-42.667 42.666 19.2 42.666 42.667-19.2 42.667-42.666 42.667zm505.6 384h-384c-12.8 0-21.334-10.667-21.334-21.334 0-12.8 8.534-21.333 21.334-21.333h384c10.666 0 21.333 8.533 21.333 21.333 0 10.667-10.667 21.334-21.333 21.334zm0-213.334h-384c-12.8 0-21.334-10.666-21.334-21.333s8.534-21.333 21.334-21.333h384c10.666 0 21.333 10.666 21.333 21.333s-10.667 21.333-21.333 21.333zm0-213.333h-384c-12.8 0-21.334-8.533-21.334-21.333s8.534-21.334 21.334-21.334h384c10.666 0 21.333 8.534 21.333 21.334S782.933 320 772.267 320z" fill="#666767"/></svg>