<?xml version="1.0" standalone="no"?><!DOCTYPE svg PUBLIC "-//W3C//DTD SVG 1.1//EN" "http://www.w3.org/Graphics/SVG/1.1/DTD/svg11.dtd"><svg t="1564108367523" class="icon" viewBox="0 0 1024 1024" version="1.1" xmlns="http://www.w3.org/2000/svg" p-id="5762" xmlns:xlink="http://www.w3.org/1999/xlink" width="200" height="200"><defs><style type="text/css"></style></defs><path d="M512 1024C229.677176 1024 0 794.383059 0 512 0 229.677176 229.677176 0 512 0 794.383059 0 1024 229.677176 1024 512c0 282.383059-229.616941 512-512 512z m0-903.529412C296.116706 120.470588 120.470588 296.116706 120.470588 512S296.116706 903.529412 512 903.529412 903.529412 727.883294 903.529412 512 727.883294 120.470588 512 120.470588z" fill="#D33D43" p-id="5763"></path><path d="M740.111059 684.513882H675.237647l-2.831059-8.071529a170.706824 170.706824 0 0 0-160.527059-113.724235 170.827294 170.827294 0 0 0-160.647529 113.724235l-2.831059 8.071529H283.828706a27.286588 27.286588 0 0 1-27.226353-27.286588V490.014118c0-23.431529 19.034353-42.526118 42.465882-42.526118h3.132236V410.804706h-18.31153a27.286588 27.286588 0 0 1-27.286588-27.286588c0-0.421647 1.445647-44.092235 24.877176-44.092236h458.270118c20.359529 0 27.587765 35.117176 27.587765 44.092236 0 15.058824-12.227765 27.286588-27.226353 27.286588h-18.31153v36.683294h3.132236c23.371294 0 42.405647 19.034353 42.405647 42.526118v167.213176c0 15.058824-12.227765 27.286588-27.226353 27.286588z m-48.067765-24.094117h48.067765a3.192471 3.192471 0 0 0 3.132235-3.192471V490.014118a18.371765 18.371765 0 0 0-18.311529-18.371765h-27.226353V386.710588h42.405647a3.132235 3.132235 0 0 0 3.132235-3.132235 53.007059 53.007059 0 0 0-6.324706-19.998118H285.033412a60.837647 60.837647 0 0 0-4.276706 19.937883c0 1.746824 1.385412 3.132235 3.132235 3.132235h42.465883v84.931765h-27.286589a18.432 18.432 0 0 0-18.371764 18.371764v167.213177c0 1.746824 1.325176 3.192471 3.132235 3.19247h47.706353a194.861176 194.861176 0 0 1 180.284235-121.735529c79.329882 0 150.708706 48.609882 180.224 121.795765z m-0.662588-188.777412h-84.931765V386.710588h84.931765v84.931765z m-60.837647-24.154353h36.683294V410.804706h-36.683294v36.683294z m-30.418824 24.154353h-84.931764V386.710588h84.931764v84.931765z m-60.837647-24.154353h36.683294V410.804706h-36.683294v36.683294z m-30.479059 24.154353h-84.931764V386.710588h84.931764v84.931765z m-60.777411-24.154353h36.683294V410.804706h-36.683294v36.683294z m-30.418824 24.154353h-84.931765V386.710588h84.931765v84.931765z m-60.837647-24.154353h36.683294V410.804706h-36.683294v36.683294z" fill="#D33D43" p-id="5764"></path></svg>