<?xml version="1.0" standalone="no"?><!DOCTYPE svg PUBLIC "-//W3C//DTD SVG 1.1//EN" "http://www.w3.org/Graphics/SVG/1.1/DTD/svg11.dtd"><svg class="icon" width="200px" height="200.00px" viewBox="0 0 1024 1024" version="1.1" xmlns="http://www.w3.org/2000/svg"><path fill="#13227a" d="M406.3 67.8H59v888.5h125.8V553.5h221.5c135.9 0 246.7-108.2 246.7-244.1C652.9 176 542.2 67.8 406.3 67.8z m-20.1 359.9H184.8V193.6h201.3c60.4 2.5 113.3 57.9 113.3 115.8s-52.8 115.8-113.2 118.3zM957.5 739.8c-5-7.6-15.1-17.6-15.1-17.6l-45.3-120.8c-10.1-22.7-37.8-35.2-47.8-35.2H612.7c-12.6 0-40.3 12.6-47.8 35.2l-45.3 120.8s-10.1 10.1-15.1 17.6c-5 7.6-7.6 15.1-7.6 68s10.1 70.5 22.7 75.5l10.1 5v47.8c0 15.1 2.5 20.1 17.6 20.1H580c15.1 0 25.2 0 25.2-15.1v-47.8h249.2v47.8c0 15.1 10.1 15.1 25.2 15.1h35.2c15.1 0 17.6-5 17.6-20.1v-45.3l10.1-5c12.6-7.6 22.7-25.2 22.7-75.5-0.2-55.4-5.2-63-7.7-70.5zM580 709.6c2.5-7.6 15.1-60.4 20.1-78 2.5-7.6 17.6-25.2 35.2-25.2h193.8c17.6 0 32.7 17.6 35.2 25.2 5 17.6 17.6 70.5 20.1 78 2.5 7.6-5 7.6-5 7.6H585c0-0.1-7.6-0.1-5-7.6z m5 128.3c-20.1 0-35.2-15.1-35.2-35.2s15.1-35.2 35.2-35.2 35.2 15.1 35.2 35.2-17.6 35.2-35.2 35.2z m294.5 0c-20.1 0-35.2-15.1-35.2-35.2s15.1-35.2 35.2-35.2 35.2 15.1 35.2 35.2-17.6 35.2-35.2 35.2z"  /></svg>